<mxfile host="app.diagrams.net" modified="2024-05-19T13:07:16.310Z" agent="Mozilla/5.0 (X11; Linux x86_64; rv:125.0) Gecko/20100101 Firefox/125.0" etag="A7OTXrkX7UXvtDyzi_Ld" version="24.4.4" type="device">
  <diagram name="Page-1" id="1knXw_KPlJHqq953tKW3">
    <mxGraphModel dx="794" dy="1138" grid="1" gridSize="10" guides="1" tooltips="1" connect="1" arrows="1" fold="1" page="1" pageScale="1" pageWidth="850" pageHeight="1100" math="0" shadow="0">
      <root>
        <mxCell id="0" />
        <mxCell id="1" parent="0" />
        <mxCell id="Syl_oZhVjM_HG2KD4Nfe-3" value="" style="edgeStyle=orthogonalEdgeStyle;rounded=0;orthogonalLoop=1;jettySize=auto;html=1;" edge="1" parent="1" source="Syl_oZhVjM_HG2KD4Nfe-1" target="Syl_oZhVjM_HG2KD4Nfe-2">
          <mxGeometry relative="1" as="geometry" />
        </mxCell>
        <mxCell id="Syl_oZhVjM_HG2KD4Nfe-1" value="Start" style="ellipse;whiteSpace=wrap;html=1;aspect=fixed;" vertex="1" parent="1">
          <mxGeometry x="370" y="550" width="80" height="80" as="geometry" />
        </mxCell>
        <mxCell id="Syl_oZhVjM_HG2KD4Nfe-5" value="" style="edgeStyle=orthogonalEdgeStyle;rounded=0;orthogonalLoop=1;jettySize=auto;html=1;" edge="1" parent="1" source="Syl_oZhVjM_HG2KD4Nfe-2" target="Syl_oZhVjM_HG2KD4Nfe-4">
          <mxGeometry relative="1" as="geometry" />
        </mxCell>
        <mxCell id="Syl_oZhVjM_HG2KD4Nfe-2" value="Load Data" style="whiteSpace=wrap;html=1;" vertex="1" parent="1">
          <mxGeometry x="350" y="670" width="120" height="60" as="geometry" />
        </mxCell>
        <mxCell id="Syl_oZhVjM_HG2KD4Nfe-7" value="" style="edgeStyle=orthogonalEdgeStyle;rounded=0;orthogonalLoop=1;jettySize=auto;html=1;" edge="1" parent="1" source="Syl_oZhVjM_HG2KD4Nfe-4" target="Syl_oZhVjM_HG2KD4Nfe-6">
          <mxGeometry relative="1" as="geometry" />
        </mxCell>
        <mxCell id="Syl_oZhVjM_HG2KD4Nfe-4" value="Count Categorical &amp;amp;&lt;br&gt;Numerical Values" style="whiteSpace=wrap;html=1;" vertex="1" parent="1">
          <mxGeometry x="350" y="780" width="120" height="60" as="geometry" />
        </mxCell>
        <mxCell id="Syl_oZhVjM_HG2KD4Nfe-9" value="" style="edgeStyle=orthogonalEdgeStyle;rounded=0;orthogonalLoop=1;jettySize=auto;html=1;" edge="1" parent="1" source="Syl_oZhVjM_HG2KD4Nfe-6" target="Syl_oZhVjM_HG2KD4Nfe-8">
          <mxGeometry relative="1" as="geometry" />
        </mxCell>
        <mxCell id="Syl_oZhVjM_HG2KD4Nfe-6" value="Sampling Categorical Values" style="whiteSpace=wrap;html=1;" vertex="1" parent="1">
          <mxGeometry x="350" y="890" width="120" height="60" as="geometry" />
        </mxCell>
        <mxCell id="Syl_oZhVjM_HG2KD4Nfe-11" value="" style="edgeStyle=orthogonalEdgeStyle;rounded=0;orthogonalLoop=1;jettySize=auto;html=1;" edge="1" parent="1" source="Syl_oZhVjM_HG2KD4Nfe-8" target="Syl_oZhVjM_HG2KD4Nfe-10">
          <mxGeometry relative="1" as="geometry" />
        </mxCell>
        <mxCell id="Syl_oZhVjM_HG2KD4Nfe-8" value="Choose Target Value" style="whiteSpace=wrap;html=1;" vertex="1" parent="1">
          <mxGeometry x="350" y="1000" width="120" height="60" as="geometry" />
        </mxCell>
        <mxCell id="Syl_oZhVjM_HG2KD4Nfe-13" value="" style="edgeStyle=orthogonalEdgeStyle;rounded=0;orthogonalLoop=1;jettySize=auto;html=1;" edge="1" parent="1" source="Syl_oZhVjM_HG2KD4Nfe-10" target="Syl_oZhVjM_HG2KD4Nfe-12">
          <mxGeometry relative="1" as="geometry" />
        </mxCell>
        <mxCell id="Syl_oZhVjM_HG2KD4Nfe-10" value="&lt;div&gt;Perform Hot &lt;br&gt;&lt;/div&gt;&lt;div&gt;Encoding&lt;br&gt;&lt;/div&gt;" style="whiteSpace=wrap;html=1;" vertex="1" parent="1">
          <mxGeometry x="350" y="1110" width="120" height="60" as="geometry" />
        </mxCell>
        <mxCell id="Syl_oZhVjM_HG2KD4Nfe-17" value="" style="edgeStyle=orthogonalEdgeStyle;rounded=0;orthogonalLoop=1;jettySize=auto;html=1;" edge="1" parent="1" source="Syl_oZhVjM_HG2KD4Nfe-12" target="Syl_oZhVjM_HG2KD4Nfe-16">
          <mxGeometry relative="1" as="geometry" />
        </mxCell>
        <mxCell id="Syl_oZhVjM_HG2KD4Nfe-12" value="&lt;div&gt;Calculate Variable&lt;/div&gt;&lt;div&gt;Importance&lt;br&gt;&lt;/div&gt;" style="whiteSpace=wrap;html=1;" vertex="1" parent="1">
          <mxGeometry x="350" y="1210" width="120" height="60" as="geometry" />
        </mxCell>
        <mxCell id="Syl_oZhVjM_HG2KD4Nfe-16" value="End" style="ellipse;whiteSpace=wrap;html=1;" vertex="1" parent="1">
          <mxGeometry x="370" y="1310" width="80" height="80" as="geometry" />
        </mxCell>
      </root>
    </mxGraphModel>
  </diagram>
</mxfile>
